<?xml version="1.0" encoding="utf-8"?>
<!-- Generator: Adobe Illustrator 18.0.0, SVG Export Plug-In . SVG Version: 6.00 Build 0)  -->
<!DOCTYPE svg PUBLIC "-//W3C//DTD SVG 1.1//EN" "http://www.w3.org/Graphics/SVG/1.1/DTD/svg11.dtd">
<svg version="1.1" id="Layer_1" xmlns="http://www.w3.org/2000/svg" xmlns:xlink="http://www.w3.org/1999/xlink" x="0px" y="0px"
	 viewBox="0 0 612 792" enable-background="new 0 0 612 792" xml:space="preserve">
<g>
	<path fill="#FFFFFF" d="M290.9,250.4c7.2,0.4,14.3,0.6,21.4,1.3c13.8,1.4,26.1,7.6,37,18c5.1,4.9,10,10,15.2,14.6
		c3.2,2.8,6.7,5.3,10.4,6.9c7.4,3.3,14.4,0.1,17.5-8.6c2.3-6.5,3.7-13.7,4.3-20.8c1-12.1,0.7-24.4,1.6-36.5
		c3.1-43.4,18.3-78.8,49.5-102.3c32.4-24.5,79-19.2,103.1,13.7c19.6,26.7,34.2,58.2,41.6,92.7c10.6,50-15.5,103.3-57.2,120.5
		c-10.5,4.3-21.5,7.1-32.3,10.5c-17.7,5.6-32.2,16.9-43,34.9c-10.4,17.3-13.6,36-7,56.1c4.1,12.4,8.9,24.5,13.4,36.8
		c3,8.2,6.8,16.1,9.1,24.6c2.7,10.2-1.2,21.3-9,26.4c-5.2,3.4-11,5.7-16.6,8.2c-3.9,1.7-8,3-11.9,4.5c-19.1,7.2-25.6,19.2-23.4,43.2
		c0.4,4,0.8,7.9,1.2,11.9c3.9,41.4-16.8,72.8-51.3,77.9c-16.6,2.5-32.3-0.6-44-16.2c-4.7-6.2-7.7-14.4-10.7-22.1
		c-2.6-6.7-3.9-14-6.1-20.9c-4.8-15.2-13.8-25.3-26.7-30.1c-16.8-6.2-33.8-6.8-50.8-1.8c-12.5,3.6-25,27.5-25,27.5
		s-3.6,14.6-5.4,21.8c-6.2,24.3-20.3,37.2-40.9,40.7c-10.6,1.8-21,0.6-31-3.8c-19.3-8.4-29.6-28-27.1-52.5
		c0.8-7.7,2.5-15.3,3.9-22.9c4.3-23-2-38.7-20-47.9c-7.9-4.1-16.5-6.4-24.7-9.7c-8-3.3-16.3-6.1-23.9-10.5
		c-12.5-7.3-13.6-19.9-3.4-31.2c1-1.1,2-2.2,3.1-3.1c18.5-15.1,30.9-35.9,40.5-59.8c8.5-21,16.6-42.5,26.8-62.3
		C140.9,298.8,211.1,251.9,290.9,250.4z"/>
</g>
</svg>
